{"accessors" : [{"bufferView" : 0, "byteOffset" : 0, "componentType" : 5123, "count" : 1212, "type" : "SCALAR", "max" : [207], "min" : [0]}, {"bufferView" : 1, "byteOffset" : 0, "componentType" : 5126, "count" : 208, "type" : "VEC3", "max" : [479.595886230469, 442.552703857422, -113.342300415039], "min" : [473.955596923828, 317.104705810547, -275.033111572266]}, {"bufferView" : 1, "byteOffset" : 12, "componentType" : 5126, "count" : 208, "type" : "VEC3", "max" : [0.999856293201447, 0.986799120903015, 0.989748477935791], "min" : [-0.999856293201447, -0.986819446086884, -0.989734709262848]}, {"bufferView" : 0, "byteOffset" : 2424, "componentType" : 5123, "count" : 2214, "type" : "SCALAR", "max" : [378], "min" : [0]}, {"bufferView" : 2, "byteOffset" : 0, "componentType" : 5126, "count" : 379, "type" : "VEC3", "max" : [319.458648681641, 404.408630371094, -185.466552734375], "min" : [305.858673095703, 36.5413703918457, -198.861282348633]}, {"bufferView" : 2, "byteOffset" : 12, "componentType" : 5126, "count" : 379, "type" : "VEC3", "max" : [1.0000011920929, 1.00000441074371, 0.985029518604279], "min" : [-1.0000011920929, -0.980522453784943, -0.98499858379364]}, {"bufferView" : 0, "byteOffset" : 6852, "componentType" : 5123, "count" : 648, "type" : "SCALAR", "max" : [135], "min" : [0]}, {"bufferView" : 3, "byteOffset" : 0, "componentType" : 5126, "count" : 136, "type" : "VEC3", "max" : [480.802307128906, 446.42578125, -107.549697875977], "min" : [472.752197265625, 313.1328125, -280.650604248047]}, {"bufferView" : 3, "byteOffset" : 12, "componentType" : 5126, "count" : 136, "type" : "VEC3", "max" : [0.992614507675171, 0.936329245567322, 0.98888111114502], "min" : [-0.992883622646332, -0.931066334247589, -0.988886296749115]}, {"bufferView" : 0, "byteOffset" : 8148, "componentType" : 5123, "count" : 216, "type" : "SCALAR", "max" : [71], "min" : [0]}, {"bufferView" : 4, "byteOffset" : 0, "componentType" : 5126, "count" : 72, "type" : "VEC3", "max" : [475.630157470703, 397.196197509766, -190.855758666992], "min" : [313.8818359375, 322.559234619141, -196.994750976563]}, {"bufferView" : 4, "byteOffset" : 12, "componentType" : 5126, "count" : 72, "type" : "VEC3", "max" : [0.323115289211273, 0.985201358795166, 0.999378263950348], "min" : [-0.322882473468781, -0.985147714614868, -0.999377965927124]}, {"bufferView" : 0, "byteOffset" : 8580, "componentType" : 5123, "count" : 564, "type" : "SCALAR", "max" : [95], "min" : [0]}, {"bufferView" : 5, "byteOffset" : 0, "componentType" : 5126, "count" : 96, "type" : "VEC3", "max" : [476.579040527344, 402.545989990234, -185.655151367188], "min" : [473.8017578125, 369.655609130859, -201.701156616211]}, {"bufferView" : 5, "byteOffset" : 12, "componentType" : 5126, "count" : 96, "type" : "VEC3", "max" : [0.991140902042389, 0.983012020587921, 0.989298760890961], "min" : [-0.990953266620636, -0.9830122590065, -0.98945552110672]}, {"bufferView" : 0, "byteOffset" : 9708, "componentType" : 5123, "count" : 648, "type" : "SCALAR", "max" : [135], "min" : [0]}, {"bufferView" : 6, "byteOffset" : 0, "componentType" : 5126, "count" : 136, "type" : "VEC3", "max" : [480.790496826172, 446.558502197266, -107.689399719238], "min" : [472.764190673828, 313.008697509766, -280.510314941406]}, {"bufferView" : 6, "byteOffset" : 12, "componentType" : 5126, "count" : 136, "type" : "VEC3", "max" : [0.997797071933746, 0.987902164459229, 0.730164349079132], "min" : [-0.997693359851837, -0.988124966621399, -0.733952939510345]}, {"bufferView" : 0, "byteOffset" : 11004, "componentType" : 5123, "count" : 492, "type" : "SCALAR", "max" : [83], "min" : [0]}, {"bufferView" : 7, "byteOffset" : 0, "componentType" : 5126, "count" : 84, "type" : "VEC3", "max" : [475.409606933594, 335.854858398438, -196.754470825195], "min" : [473.924102783203, 331.415161132813, -200.763107299805]}, {"bufferView" : 7, "byteOffset" : 12, "componentType" : 5126, "count" : 84, "type" : "VEC3", "max" : [0.98173063993454, 0.992835581302643, 0.984733581542969], "min" : [-0.981773257255554, -0.992836773395538, -0.984760403633118]}, {"bufferView" : 0, "byteOffset" : 11988, "componentType" : 5123, "count" : 492, "type" : "SCALAR", "max" : [83], "min" : [0]}, {"bufferView" : 8, "byteOffset" : 0, "componentType" : 5126, "count" : 84, "type" : "VEC3", "max" : [475.409606933594, 336.380279541016, -184.640060424805], "min" : [473.924102783203, 331.940551757813, -188.648803710938]}, {"bufferView" : 8, "byteOffset" : 12, "componentType" : 5126, "count" : 84, "type" : "VEC3", "max" : [0.981728911399841, 0.992835581302643, 0.984733581542969], "min" : [-0.981771528720856, -0.992836773395538, -0.984702169895172]}, {"bufferView" : 0, "byteOffset" : 12972, "componentType" : 5123, "count" : 492, "type" : "SCALAR", "max" : [83], "min" : [0]}, {"bufferView" : 9, "byteOffset" : 0, "componentType" : 5126, "count" : 84, "type" : "VEC3", "max" : [475.409606933594, 345.75146484375, -185.046493530273], "min" : [473.924102783203, 341.311737060547, -189.055236816406]}, {"bufferView" : 9, "byteOffset" : 12, "componentType" : 5126, "count" : 84, "type" : "VEC3", "max" : [0.981722950935364, 0.992836773395538, 0.984733581542969], "min" : [-0.981765687465668, -0.99281257390976, -0.984702169895172]}, {"bufferView" : 0, "byteOffset" : 13956, "componentType" : 5123, "count" : 492, "type" : "SCALAR", "max" : [83], "min" : [0]}, {"bufferView" : 10, "byteOffset" : 0, "componentType" : 5126, "count" : 84, "type" : "VEC3", "max" : [475.409606933594, 345.550445556641, -197.17497253418], "min" : [473.924102783203, 341.110717773438, -201.183624267578]}, {"bufferView" : 10, "byteOffset" : 12, "componentType" : 5126, "count" : 84, "type" : "VEC3", "max" : [0.98173975944519, 0.992854118347168, 0.984729766845703], "min" : [-0.981782376766205, -0.992854118347168, -0.984756469726563]}, {"bufferView" : 0, "byteOffset" : 14940, "componentType" : 5123, "count" : 492, "type" : "SCALAR", "max" : [83], "min" : [0]}, {"bufferView" : 11, "byteOffset" : 0, "componentType" : 5126, "count" : 84, "type" : "VEC3", "max" : [474.051147460938, 375.102813720703, -187.468460083008], "min" : [472.565551757813, 370.658905029297, -191.398849487305]}, {"bufferView" : 11, "byteOffset" : 12, "componentType" : 5126, "count" : 84, "type" : "VEC3", "max" : [0.981716513633728, 0.99284702539444, 0.984728872776031], "min" : [-0.981737852096558, -0.99284702539444, -0.984728872776031]}, {"bufferView" : 0, "byteOffset" : 15924, "componentType" : 5123, "count" : 492, "type" : "SCALAR", "max" : [83], "min" : [0]}, {"bufferView" : 12, "byteOffset" : 0, "componentType" : 5126, "count" : 84, "type" : "VEC3", "max" : [474.051147460938, 375.40478515625, -196.28205871582], "min" : [472.565551757813, 370.960906982422, -200.212448120117]}, {"bufferView" : 12, "byteOffset" : 12, "componentType" : 5126, "count" : 84, "type" : "VEC3", "max" : [0.981701552867889, 0.992829561233521, 0.984733581542969], "min" : [-0.981722950935364, -0.992805361747742, -0.984733581542969]}, {"bufferView" : 0, "byteOffset" : 16908, "componentType" : 5123, "count" : 492, "type" : "SCALAR", "max" : [83], "min" : [0]}, {"bufferView" : 13, "byteOffset" : 0, "componentType" : 5126, "count" : 84, "type" : "VEC3", "max" : [474.051147460938, 401.085510253906, -187.246459960938], "min" : [472.565551757813, 396.6416015625, -191.176956176758]}, {"bufferView" : 13, "byteOffset" : 12, "componentType" : 5126, "count" : 84, "type" : "VEC3", "max" : [0.981709122657776, 0.992836773395538, 0.984722256660461], "min" : [-0.98173063993454, -0.992835581302643, -0.984702169895172]}, {"bufferView" : 0, "byteOffset" : 17892, "componentType" : 5123, "count" : 492, "type" : "SCALAR", "max" : [83], "min" : [0]}, {"bufferView" : 14, "byteOffset" : 0, "componentType" : 5126, "count" : 84, "type" : "VEC3", "max" : [474.051147460938, 400.937896728516, -196.28205871582], "min" : [472.565551757813, 396.493988037109, -200.212448120117]}, {"bufferView" : 14, "byteOffset" : 12, "componentType" : 5126, "count" : 84, "type" : "VEC3", "max" : [0.981701552867889, 0.992805361747742, 0.984733581542969], "min" : [-0.981722950935364, -0.992829561233521, -0.984733581542969]}, {"bufferView" : 0, "byteOffset" : 18876, "componentType" : 5123, "count" : 1356, "type" : "SCALAR", "max" : [227], "min" : [0]}, {"bufferView" : 15, "byteOffset" : 0, "componentType" : 5126, "count" : 228, "type" : "VEC3", "max" : [548.345581054688, 345.218597412109, -192.703948974609], "min" : [547.249755859375, 343.377380371094, -199.315521240234]}, {"bufferView" : 15, "byteOffset" : 12, "componentType" : 5126, "count" : 228, "type" : "VEC3", "max" : [0.999284148216248, 0.997710466384888, 0.987352728843689], "min" : [-0.999444603919983, -0.997006595134735, -0.991160452365875]}, {"bufferView" : 0, "byteOffset" : 21588, "componentType" : 5123, "count" : 1356, "type" : "SCALAR", "max" : [227], "min" : [0]}, {"bufferView" : 16, "byteOffset" : 0, "componentType" : 5126, "count" : 228, "type" : "VEC3", "max" : [546.908508300781, 345.375, -180.261932373047], "min" : [543.586791992188, 343.520751953125, -186.305374145508]}, {"bufferView" : 16, "byteOffset" : 12, "componentType" : 5126, "count" : 228, "type" : "VEC3", "max" : [0.979446828365326, 0.994953572750092, 0.97007828950882], "min" : [-0.975859701633453, -0.994678616523743, -0.977486789226532]}, {"bufferView" : 0, "byteOffset" : 24300, "componentType" : 5123, "count" : 1356, "type" : "SCALAR", "max" : [227], "min" : [0]}, {"bufferView" : 17, "byteOffset" : 0, "componentType" : 5126, "count" : 228, "type" : "VEC3", "max" : [539.605895996094, 345.356750488281, -171.502990722656], "min" : [533.929870605469, 343.531036376953, -175.528945922852]}, {"bufferView" : 17, "byteOffset" : 12, "componentType" : 5126, "count" : 228, "type" : "VEC3", "max" : [0.989621460437775, 0.997141182422638, 0.981491565704346], "min" : [-0.951390981674194, -0.997009038925171, -0.991423010826111]}, {"bufferView" : 0, "byteOffset" : 27012, "componentType" : 5123, "count" : 1356, "type" : "SCALAR", "max" : [227], "min" : [0]}, {"bufferView" : 18, "byteOffset" : 0, "componentType" : 5126, "count" : 228, "type" : "VEC3", "max" : [527.804626464844, 345.320739746094, -168.711563110352], "min" : [521.194274902344, 343.475616455078, -169.813323974609]}, {"bufferView" : 18, "byteOffset" : 12, "componentType" : 5126, "count" : 228, "type" : "VEC3", "max" : [0.991296947002411, 0.997445404529572, 0.999247014522552], "min" : [-0.987581431865692, -0.996688842773438, -0.999379932880402]}, {"bufferView" : 0, "byteOffset" : 29724, "componentType" : 5123, "count" : 1356, "type" : "SCALAR", "max" : [227], "min" : [0]}, {"bufferView" : 19, "byteOffset" : 0, "componentType" : 5126, "count" : 228, "type" : "VEC3", "max" : [514.781921386719, 345.233093261719, -170.138916015625], "min" : [508.733276367188, 343.372650146484, -173.458923339844]}, {"bufferView" : 19, "byteOffset" : 12, "componentType" : 5126, "count" : 228, "type" : "VEC3", "max" : [0.975547909736633, 0.997070729732513, 0.98151820898056], "min" : [-0.96837717294693, -0.996870338916779, -0.974787712097168]}, {"bufferView" : 0, "byteOffset" : 32436, "componentType" : 5123, "count" : 1356, "type" : "SCALAR", "max" : [227], "min" : [0]}, {"bufferView" : 20, "byteOffset" : 0, "componentType" : 5126, "count" : 228, "type" : "VEC3", "max" : [504.020202636719, 345.099273681641, -177.452301025391], "min" : [499.991058349609, 343.232086181641, -183.127532958984]}, {"bufferView" : 20, "byteOffset" : 12, "componentType" : 5126, "count" : 228, "type" : "VEC3", "max" : [0.98249876499176, 0.995131134986877, 0.989749133586884], "min" : [-0.966579794883728, -0.995739758014679, -0.951030731201172]}, {"bufferView" : 0, "byteOffset" : 35148, "componentType" : 5123, "count" : 1356, "type" : "SCALAR", "max" : [227], "min" : [0]}, {"bufferView" : 21, "byteOffset" : 0, "componentType" : 5126, "count" : 228, "type" : "VEC3", "max" : [545.557067871094, 345.122344970703, -205.438339233398], "min" : [541.530822753906, 343.272155761719, -211.117965698242]}, {"bufferView" : 21, "byteOffset" : 12, "componentType" : 5126, "count" : 228, "type" : "VEC3", "max" : [0.981398642063141, 0.996881723403931, 0.966272473335266], "min" : [-0.991360306739807, -0.997036874294281, -0.984858930110931]}, {"bufferView" : 0, "byteOffset" : 37860, "componentType" : 5123, "count" : 1356, "type" : "SCALAR", "max" : [227], "min" : [0]}, {"bufferView" : 22, "byteOffset" : 0, "componentType" : 5126, "count" : 228, "type" : "VEC3", "max" : [536.814758300781, 345.001098632813, -215.107177734375], "min" : [530.76904296875, 343.151916503906, -218.431594848633]}, {"bufferView" : 22, "byteOffset" : 12, "componentType" : 5126, "count" : 228, "type" : "VEC3", "max" : [0.972995638847351, 0.994723320007324, 0.980601787567139], "min" : [-0.980288088321686, -0.995500087738037, -0.978731870651245]}, {"bufferView" : 0, "byteOffset" : 40572, "componentType" : 5123, "count" : 1356, "type" : "SCALAR", "max" : [227], "min" : [0]}, {"bufferView" : 23, "byteOffset" : 0, "componentType" : 5126, "count" : 228, "type" : "VEC3", "max" : [524.355529785156, 344.860504150391, -218.752700805664], "min" : [517.744873046875, 343.021728515625, -219.855545043945]}, {"bufferView" : 23, "byteOffset" : 12, "componentType" : 5126, "count" : 228, "type" : "VEC3", "max" : [0.987312853336334, 0.993231654167175, 0.998488962650299], "min" : [-0.991193771362305, -0.992816984653473, -0.99916934967041]}, {"bufferView" : 0, "byteOffset" : 43284, "componentType" : 5123, "count" : 1356, "type" : "SCALAR", "max" : [227], "min" : [0]}, {"bufferView" : 24, "byteOffset" : 0, "componentType" : 5126, "count" : 228, "type" : "VEC3", "max" : [511.621307373047, 344.805389404297, -213.037139892578], "min" : [505.942047119141, 342.9716796875, -217.066940307617]}, {"bufferView" : 24, "byteOffset" : 12, "componentType" : 5126, "count" : 228, "type" : "VEC3", "max" : [0.966121733188629, 0.992050468921661, 0.982612192630768], "min" : [-0.984774529933929, -0.992094159126282, -0.966593205928802]}, {"bufferView" : 0, "byteOffset" : 45996, "componentType" : 5123, "count" : 1356, "type" : "SCALAR", "max" : [227], "min" : [0]}, {"bufferView" : 25, "byteOffset" : 0, "componentType" : 5126, "count" : 228, "type" : "VEC3", "max" : [501.952087402344, 344.854217529297, -202.275192260742], "min" : [498.627868652344, 343.003082275391, -208.32438659668]}, {"bufferView" : 25, "byteOffset" : 12, "componentType" : 5126, "count" : 228, "type" : "VEC3", "max" : [0.980394124984741, 0.992029130458832, 0.975717008113861], "min" : [-0.978564739227295, -0.992021501064301, -0.968170881271362]}, {"bufferView" : 0, "byteOffset" : 48708, "componentType" : 5123, "count" : 266112, "type" : "SCALAR", "max" : [44363], "min" : [0]}, {"bufferView" : 26, "byteOffset" : 0, "componentType" : 5126, "count" : 44364, "type" : "VEC3", "max" : [549.497680664063, 345.076507568359, -168.128341674805], "min" : [497.687805175781, 293.270629882813, -220.518630981445]}, {"bufferView" : 26, "byteOffset" : 12, "componentType" : 5126, "count" : 44364, "type" : "VEC3", "max" : [0.9999960064888, 1.00000178813934, 0.999937117099762], "min" : [-0.999995350837708, -0.999970257282257, -0.99994307756424]}, {"bufferView" : 0, "byteOffset" : 580932, "componentType" : 5123, "count" : 13824, "type" : "SCALAR", "max" : [2303], "min" : [0]}, {"bufferView" : 27, "byteOffset" : 0, "componentType" : 5126, "count" : 2304, "type" : "VEC3", "max" : [548.721801757813, 348.627593994141, -168.339126586914], "min" : [496.855255126953, 344.786224365234, -220.204925537109]}, {"bufferView" : 27, "byteOffset" : 12, "componentType" : 5126, "count" : 2304, "type" : "VEC3", "max" : [0.999961793422699, 0.999949276447296, 0.999942183494568], "min" : [-0.999996781349182, -0.999948680400848, -0.999987602233887]}, {"bufferView" : 0, "byteOffset" : 608580, "componentType" : 5123, "count" : 18144, "type" : "SCALAR", "max" : [3025], "min" : [0]}, {"bufferView" : 28, "byteOffset" : 0, "componentType" : 5126, "count" : 3026, "type" : "VEC3", "max" : [529.434631347656, 346.57373046875, -167.668762207031], "min" : [495.958618164063, 340.494689941406, -220.985061645508]}, {"bufferView" : 28, "byteOffset" : 12, "componentType" : 5126, "count" : 3026, "type" : "VEC3", "max" : [0.999969303607941, 0.999951124191284, 0.999969184398651], "min" : [-0.99999737739563, -0.997690260410309, -0.999969303607941]}, {"bufferView" : 0, "byteOffset" : 644868, "componentType" : 5123, "count" : 12576, "type" : "SCALAR", "max" : [2097], "min" : [0]}, {"bufferView" : 29, "byteOffset" : 0, "componentType" : 5126, "count" : 2098, "type" : "VEC3", "max" : [497.178649902344, 347.271362304688, -182.442718505859], "min" : [477.896636962891, 329.440277099609, -203.602645874023]}, {"bufferView" : 29, "byteOffset" : 12, "componentType" : 5126, "count" : 2098, "type" : "VEC3", "max" : [0.99976259469986, 0.999975502490997, 1.00000214576721], "min" : [-0.999967098236084, -0.999981164932251, -0.999841749668121]}], "asset" : {"generator" : "Aspose.3D 20.2.1", "version" : "2.0"}, "buffers" : [{"uri" : "buffer.bin", "byteLength" : 2014116}], "bufferViews" : [{"buffer" : 0, "byteOffset" : 0, "byteLength" : 670020, "target" : 34963}, {"buffer" : 0, "byteOffset" : 670024, "byteLength" : 4992, "byteStride" : 24, "target" : 34962}, {"buffer" : 0, "byteOffset" : 675020, "byteLength" : 9096, "byteStride" : 24, "target" : 34962}, {"buffer" : 0, "byteOffset" : 684120, "byteLength" : 3264, "byteStride" : 24, "target" : 34962}, {"buffer" : 0, "byteOffset" : 687388, "byteLength" : 1728, "byteStride" : 24, "target" : 34962}, {"buffer" : 0, "byteOffset" : 689120, "byteLength" : 2304, "byteStride" : 24, "target" : 34962}, {"buffer" : 0, "byteOffset" : 691428, "byteLength" : 3264, "byteStride" : 24, "target" : 34962}, {"buffer" : 0, "byteOffset" : 694696, "byteLength" : 2016, "byteStride" : 24, "target" : 34962}, {"buffer" : 0, "byteOffset" : 696716, "byteLength" : 2016, "byteStride" : 24, "target" : 34962}, {"buffer" : 0, "byteOffset" : 698736, "byteLength" : 2016, "byteStride" : 24, "target" : 34962}, {"buffer" : 0, "byteOffset" : 700756, "byteLength" : 2016, "byteStride" : 24, "target" : 34962}, {"buffer" : 0, "byteOffset" : 702776, "byteLength" : 2016, "byteStride" : 24, "target" : 34962}, {"buffer" : 0, "byteOffset" : 704796, "byteLength" : 2016, "byteStride" : 24, "target" : 34962}, {"buffer" : 0, "byteOffset" : 706816, "byteLength" : 2016, "byteStride" : 24, "target" : 34962}, {"buffer" : 0, "byteOffset" : 708836, "byteLength" : 2016, "byteStride" : 24, "target" : 34962}, {"buffer" : 0, "byteOffset" : 710856, "byteLength" : 5472, "byteStride" : 24, "target" : 34962}, {"buffer" : 0, "byteOffset" : 716332, "byteLength" : 5472, "byteStride" : 24, "target" : 34962}, {"buffer" : 0, "byteOffset" : 721808, "byteLength" : 5472, "byteStride" : 24, "target" : 34962}, {"buffer" : 0, "byteOffset" : 727284, "byteLength" : 5472, "byteStride" : 24, "target" : 34962}, {"buffer" : 0, "byteOffset" : 732760, "byteLength" : 5472, "byteStride" : 24, "target" : 34962}, {"buffer" : 0, "byteOffset" : 738236, "byteLength" : 5472, "byteStride" : 24, "target" : 34962}, {"buffer" : 0, "byteOffset" : 743712, "byteLength" : 5472, "byteStride" : 24, "target" : 34962}, {"buffer" : 0, "byteOffset" : 749188, "byteLength" : 5472, "byteStride" : 24, "target" : 34962}, {"buffer" : 0, "byteOffset" : 754664, "byteLength" : 5472, "byteStride" : 24, "target" : 34962}, {"buffer" : 0, "byteOffset" : 760140, "byteLength" : 5472, "byteStride" : 24, "target" : 34962}, {"buffer" : 0, "byteOffset" : 765616, "byteLength" : 5472, "byteStride" : 24, "target" : 34962}, {"buffer" : 0, "byteOffset" : 771092, "byteLength" : 1064736, "byteStride" : 24, "target" : 34962}, {"buffer" : 0, "byteOffset" : 1835832, "byteLength" : 55296, "byteStride" : 24, "target" : 34962}, {"buffer" : 0, "byteOffset" : 1891132, "byteLength" : 72624, "byteStride" : 24, "target" : 34962}, {"buffer" : 0, "byteOffset" : 1963760, "byteLength" : 50352, "byteStride" : 24, "target" : 34962}], "meshes" : [{"primitives" : [{"attributes" : {"POSITION" : 1, "NORMAL" : 2}, "indices" : 0, "mode" : 4}]}, {"primitives" : [{"attributes" : {"POSITION" : 4, "NORMAL" : 5}, "indices" : 3, "mode" : 4}]}, {"primitives" : [{"attributes" : {"POSITION" : 7, "NORMAL" : 8}, "indices" : 6, "mode" : 4}]}, {"primitives" : [{"attributes" : {"POSITION" : 10, "NORMAL" : 11}, "indices" : 9, "mode" : 4}]}, {"primitives" : [{"attributes" : {"POSITION" : 13, "NORMAL" : 14}, "indices" : 12, "mode" : 4}]}, {"primitives" : [{"attributes" : {"POSITION" : 16, "NORMAL" : 17}, "indices" : 15, "mode" : 4}]}, {"primitives" : [{"attributes" : {"POSITION" : 19, "NORMAL" : 20}, "indices" : 18, "mode" : 4}]}, {"primitives" : [{"attributes" : {"POSITION" : 22, "NORMAL" : 23}, "indices" : 21, "mode" : 4}]}, {"primitives" : [{"attributes" : {"POSITION" : 25, "NORMAL" : 26}, "indices" : 24, "mode" : 4}]}, {"primitives" : [{"attributes" : {"POSITION" : 28, "NORMAL" : 29}, "indices" : 27, "mode" : 4}]}, {"primitives" : [{"attributes" : {"POSITION" : 31, "NORMAL" : 32}, "indices" : 30, "mode" : 4}]}, {"primitives" : [{"attributes" : {"POSITION" : 34, "NORMAL" : 35}, "indices" : 33, "mode" : 4}]}, {"primitives" : [{"attributes" : {"POSITION" : 37, "NORMAL" : 38}, "indices" : 36, "mode" : 4}]}, {"primitives" : [{"attributes" : {"POSITION" : 40, "NORMAL" : 41}, "indices" : 39, "mode" : 4}]}, {"primitives" : [{"attributes" : {"POSITION" : 43, "NORMAL" : 44}, "indices" : 42, "mode" : 4}]}, {"primitives" : [{"attributes" : {"POSITION" : 46, "NORMAL" : 47}, "indices" : 45, "mode" : 4}]}, {"primitives" : [{"attributes" : {"POSITION" : 49, "NORMAL" : 50}, "indices" : 48, "mode" : 4}]}, {"primitives" : [{"attributes" : {"POSITION" : 52, "NORMAL" : 53}, "indices" : 51, "mode" : 4}]}, {"primitives" : [{"attributes" : {"POSITION" : 55, "NORMAL" : 56}, "indices" : 54, "mode" : 4}]}, {"primitives" : [{"attributes" : {"POSITION" : 58, "NORMAL" : 59}, "indices" : 57, "mode" : 4}]}, {"primitives" : [{"attributes" : {"POSITION" : 61, "NORMAL" : 62}, "indices" : 60, "mode" : 4}]}, {"primitives" : [{"attributes" : {"POSITION" : 64, "NORMAL" : 65}, "indices" : 63, "mode" : 4}]}, {"primitives" : [{"attributes" : {"POSITION" : 67, "NORMAL" : 68}, "indices" : 66, "mode" : 4}]}, {"primitives" : [{"attributes" : {"POSITION" : 70, "NORMAL" : 71}, "indices" : 69, "mode" : 4}]}, {"primitives" : [{"attributes" : {"POSITION" : 73, "NORMAL" : 74}, "indices" : 72, "mode" : 4}]}, {"primitives" : [{"attributes" : {"POSITION" : 76, "NORMAL" : 77}, "indices" : 75, "mode" : 4}]}, {"primitives" : [{"attributes" : {"POSITION" : 79, "NORMAL" : 80}, "indices" : 78, "mode" : 4}]}, {"primitives" : [{"attributes" : {"POSITION" : 82, "NORMAL" : 83}, "indices" : 81, "mode" : 4}]}, {"primitives" : [{"attributes" : {"POSITION" : 85, "NORMAL" : 86}, "indices" : 84, "mode" : 4}]}], "nodes" : [{"mesh" : 0, "name" : "Box01"}, {"mesh" : 1, "name" : "Cylinder03"}, {"mesh" : 2, "name" : "Object01"}, {"mesh" : 3, "name" : "Object07"}, {"mesh" : 4, "name" : "Object09"}, {"mesh" : 5, "name" : "Object08"}, {"mesh" : 6, "name" : "Cylinder05"}, {"mesh" : 7, "name" : "Cylinder06"}, {"mesh" : 8, "name" : "Cylinder07"}, {"mesh" : 9, "name" : "Cylinder08"}, {"mesh" : 10, "name" : "Cylinder09"}, {"mesh" : 11, "name" : "Cylinder10"}, {"mesh" : 12, "name" : "Cylinder11"}, {"mesh" : 13, "name" : "Cylinder12"}, {"mesh" : 14, "name" : "Object14"}, {"mesh" : 15, "name" : "Object15"}, {"mesh" : 16, "name" : "Object16"}, {"mesh" : 17, "name" : "Object17"}, {"mesh" : 18, "name" : "Object18"}, {"mesh" : 19, "name" : "Object19"}, {"mesh" : 20, "name" : "Object20"}, {"mesh" : 21, "name" : "Object21"}, {"mesh" : 22, "name" : "Object22"}, {"mesh" : 23, "name" : "Object23"}, {"mesh" : 24, "name" : "Object24"}, {"mesh" : 25, "name" : "Shape01"}, {"mesh" : 26, "name" : "polymsh"}, {"mesh" : 27, "name" : "polymsh1"}, {"mesh" : 28, "name" : "polymsh2"}], "scene" : 0, "scenes" : [{"nodes" : [0, 1, 2, 3, 4, 5, 6, 7, 8, 9, 10, 11, 12, 13, 14, 15, 16, 17, 18, 19, 20, 21, 22, 23, 24, 25, 26, 27, 28]}]}